<svg xmlns="http://www.w3.org/2000/svg" viewBox="0 0 400 100">
  <defs>
    <style>
      .text { font-family: Arial, sans-serif; font-weight: bold; fill: #ffffff; }
      .subtitle { font-family: Arial, sans-serif; font-size: 14px; fill: #94a3b8; letter-spacing: 2px; }
    </style>
  </defs>
  
  <!-- Barcode circle icon -->
  <g transform="translate(10, 10)">
    <circle cx="40" cy="40" r="38" fill="none" stroke="#ffffff" stroke-width="4"/>
    <rect x="15" y="20" width="3" height="40" fill="#ffffff"/>
    <rect x="22" y="20" width="6" height="40" fill="#ffffff"/>
    <rect x="32" y="20" width="2" height="40" fill="#ffffff"/>
    <rect x="38" y="20" width="4" height="40" fill="#ffffff"/>
    <rect x="46" y="20" width="2" height="40" fill="#ffffff"/>
    <rect x="52" y="20" width="6" height="40" fill="#ffffff"/>
    <rect x="62" y="20" width="3" height="40" fill="#ffffff"/>
    <!-- Gear in center -->
    <circle cx="40" cy="40" r="12" fill="#0f172a"/>
    <path d="M40 30 L42 33 L46 32 L46 36 L50 37 L48 40 L50 43 L46 44 L46 48 L42 47 L40 50 L38 47 L34 48 L34 44 L30 43 L32 40 L30 37 L34 36 L34 32 L38 33 Z" fill="#ffffff"/>
    <circle cx="40" cy="40" r="5" fill="#0f172a"/>
  </g>
  
  <!-- Text -->
  <text x="100" y="45" class="text" font-size="28">GEZİ</text>
  <text x="100" y="45" class="text" font-size="28" dx="70">
    <tspan fill="#3b82f6">●</tspan>
  </text>
  <text x="185" y="45" class="text" font-size="28">MAKİNESİ</text>
  <text x="100" y="70" class="subtitle">T I C K E T</text>
</svg>

